<svg width="694" height="738" viewBox="0 0 694 738" fill="none" xmlns="http://www.w3.org/2000/svg">
<path d="M378.582 28.7273V116H362.645L324.676 61.071H324.037V116H305.585V28.7273H321.778L359.449 83.6136H360.216V28.7273H378.582Z" fill="#808080"/>
<path d="M357.929 634.827C357.588 631.389 356.125 628.719 353.54 626.815C350.955 624.912 347.446 623.96 343.014 623.96C340.003 623.96 337.46 624.386 335.386 625.239C333.313 626.062 331.722 627.213 330.614 628.69C329.534 630.168 328.994 631.844 328.994 633.719C328.938 635.281 329.264 636.645 329.974 637.81C330.713 638.974 331.722 639.983 333 640.835C334.278 641.659 335.756 642.384 337.432 643.009C339.108 643.605 340.898 644.116 342.801 644.543L350.642 646.418C354.449 647.27 357.943 648.406 361.125 649.827C364.307 651.247 367.063 652.994 369.392 655.068C371.722 657.142 373.526 659.585 374.804 662.398C376.111 665.21 376.778 668.435 376.807 672.071C376.778 677.412 375.415 682.043 372.716 685.963C370.045 689.855 366.182 692.881 361.125 695.04C356.097 697.17 350.031 698.236 342.929 698.236C335.884 698.236 329.747 697.156 324.52 694.997C319.321 692.838 315.259 689.642 312.332 685.409C309.435 681.148 307.915 675.878 307.773 669.599H325.628C325.827 672.526 326.665 674.969 328.142 676.929C329.648 678.861 331.651 680.324 334.151 681.318C336.679 682.284 339.534 682.767 342.716 682.767C345.841 682.767 348.554 682.312 350.855 681.403C353.185 680.494 354.989 679.23 356.267 677.611C357.545 675.991 358.185 674.131 358.185 672.028C358.185 670.068 357.602 668.42 356.438 667.085C355.301 665.75 353.625 664.614 351.409 663.676C349.222 662.739 346.537 661.886 343.355 661.119L333.852 658.733C326.494 656.943 320.685 654.145 316.423 650.338C312.162 646.531 310.045 641.403 310.074 634.955C310.045 629.67 311.452 625.054 314.293 621.105C317.162 617.156 321.097 614.074 326.097 611.858C331.097 609.642 336.778 608.534 343.142 608.534C349.619 608.534 355.273 609.642 360.102 611.858C364.96 614.074 368.739 617.156 371.438 621.105C374.136 625.054 375.528 629.628 375.614 634.827H357.929Z" fill="#808080"/>
<path d="M87.7841 360.364C87.7841 369.881 85.9801 377.977 82.3722 384.653C78.7926 391.33 73.9063 396.429 67.7131 399.952C61.5483 403.446 54.6165 405.193 46.9176 405.193C39.1619 405.193 32.2017 403.432 26.0369 399.909C19.8722 396.386 15 391.287 11.4205 384.611C7.84091 377.935 6.05114 369.852 6.05114 360.364C6.05114 350.847 7.84091 342.75 11.4205 336.074C15 329.398 19.8722 324.312 26.0369 320.818C32.2017 317.295 39.1619 315.534 46.9176 315.534C54.6165 315.534 61.5483 317.295 67.7131 320.818C73.9063 324.312 78.7926 329.398 82.3722 336.074C85.9801 342.75 87.7841 350.847 87.7841 360.364ZM69.0767 360.364C69.0767 354.199 68.1534 349 66.3068 344.767C64.4886 340.534 61.9176 337.324 58.5938 335.136C55.2699 332.949 51.3778 331.855 46.9176 331.855C42.4574 331.855 38.5653 332.949 35.2415 335.136C31.9176 337.324 29.3324 340.534 27.4858 344.767C25.6676 349 24.7585 354.199 24.7585 360.364C24.7585 366.528 25.6676 371.727 27.4858 375.96C29.3324 380.193 31.9176 383.403 35.2415 385.591C38.5653 387.778 42.4574 388.872 46.9176 388.872C51.3778 388.872 55.2699 387.778 58.5938 385.591C61.9176 383.403 64.4886 380.193 66.3068 375.96C68.1534 371.727 69.0767 366.528 69.0767 360.364Z" fill="#808080"/>
<path d="M608.585 404V316.727H667.392V331.94H627.037V352.736H664.366V367.949H627.037V388.787H667.562V404H608.585Z" fill="#808080"/>
<path d="M523.5 364.5C523.5 464.457 442.246 545.5 342 545.5C241.754 545.5 160.5 464.457 160.5 364.5C160.5 264.543 241.754 183.5 342 183.5C442.246 183.5 523.5 264.543 523.5 364.5Z" stroke="#D9D9D9" stroke-width="5"/>
</svg>
