<svg xmlns="http://www.w3.org/2000/svg" xmlns:xlink="http://www.w3.org/1999/xlink" aria-hidden="true" role="img" class="iconify iconify--ph" width="32" height="32" preserveAspectRatio="xMidYMid meet" viewBox="0 0 256 256"><path fill="currentColor" d="M24 104a12 12 0 0 1 0-24h96a12 12 0 0 0 0-24a11.6 11.6 0 0 0-8.9 4a12 12 0 0 1-17 .9a11.9 11.9 0 0 1-.9-16.9a36 36 0 1 1 26.8 60Zm184-32a36.1 36.1 0 0 0-26.8 12a11.9 11.9 0 0 0 .9 16.9a12 12 0 0 0 17-.9a11.6 11.6 0 0 1 8.9-4a12 12 0 0 1 0 24H32a12 12 0 0 0 0 24h176a36 36 0 0 0 0-72Zm-56 88H40a12 12 0 0 0 0 24h112a12 12 0 0 1 0 24a11.6 11.6 0 0 1-8.9-4a12 12 0 0 0-17-.9a11.9 11.9 0 0 0-.9 16.9a36 36 0 1 0 26.8-60Z"></path></svg>